<svg xmlns="http://www.w3.org/2000/svg" viewBox="0 0 310 310">
  <!-- White background circle -->
  <circle cx="155" cy="155" r="155" fill="#1a3a2a"/>
  <!-- SVSS symbol paths (scaled from original viewBox 0 0 920.73 310.63, taking left symbol only) -->
  <!-- Scale factor: 310/310.63 = ~1.0, x offset: the symbol is at x=13..297 in original -->
  <g transform="translate(10, 10) scale(0.94)">
    <polygon fill="#FF3333" points="35.21,34.13 35.21,15.89 35.2,15.89 35.2,12.15 13.27,12.15 13.27,34.13 14.66,34.13"/>
    <path fill="#FF3333" d="M54.23,12.15v3.74v18.24h21.98v19.02H54.23v21.9H35.21v-21.9H14.66h-1.39v242.46h283.46V12.15H54.23z
      M263,95.84v182.31h-13.99v-85.37h-59.63v85.37h-13.99V156.4h-0.08v-1.98c-21.93,10.22-34.68,32.36-47.92,55.37
      c-9.44,16.41-19.21,33.38-32.57,45.91c-14.37,13.48-31.11,20.08-51.03,20.08c-1.72,0-3.47-0.05-5.24-0.15l0.83-14.98
      c40.15,2.22,56.29-25.84,75-58.35c14.64-25.44,30.72-53.38,60.92-64.18V95.84H164.7l52.92-57.24l52.92,57.24H263z"/>
    <polygon fill="#FF3333" points="189.38,182.97 249.01,182.97 249.01,157.58 189.38,156.87"/>
  </g>
</svg>